<?xml version="1.0" encoding="UTF-8"?>
<svg xmlns="http://www.w3.org/2000/svg" width="1200" height="640" viewBox="0 0 1200 640">
  <style>
    .bg{fill:#f8fafc}
    .side{fill:#0f172a}
    .card{fill:#fff;stroke:#e6e9ee;rx:8}
    .kpi{font:700 18px/1.2 'Inter',Arial;color:#0f172a}
    .small{font:500 13px/1.2 'Inter',Arial;color:#475569}
  </style>
  <rect class="bg" width="100%" height="100%"/>
  <g transform="translate(24,24)">
    <rect x="0" y="0" width="200" height="592" rx="10" fill="#0b1220"/>
    <rect x="236" y="0" width="920" height="120" rx="10" class="card"/>
    <text x="252" y="36" font-family="Inter, Arial" font-weight="700" font-size="20" fill="#0f172a">KPIs</text>
    <g transform="translate(252,52)">
      <rect x="0" y="12" width="240" height="80" rx="8" class="card"/>
      <rect x="260" y="12" width="240" height="80" rx="8" class="card"/>
      <rect x="520" y="12" width="240" height="80" rx="8" class="card"/>
      <text x="16" y="54" font-family="Inter, Arial" font-weight="700" font-size="22" fill="#0f172a">1,234</text>
      <text x="276" y="54" font-family="Inter, Arial" font-weight="700" font-size="22" fill="#0f172a">$10,452</text>
      <text x="536" y="54" font-family="Inter, Arial" font-weight="700" font-size="22" fill="#0f172a">12</text>
    </g>
    <rect x="236" y="152" width="920" height="440" rx="10" class="card"/>
    <text x="252" y="180" font-family="Inter, Arial" font-weight="600" font-size="14" fill="#475569">Recent orders</text>
    <g transform="translate(252,196)">
      <rect x="0" y="0" width="860" height="64" rx="8" fill="#f8fafc" stroke="#e6eef8"/>
      <rect x="0" y="80" width="860" height="64" rx="8" fill="#f8fafc" stroke="#e6eef8"/>
      <rect x="0" y="160" width="860" height="64" rx="8" fill="#f8fafc" stroke="#e6eef8"/>
    </g>
  </g>
</svg>
